<svg xmlns="http://www.w3.org/2000/svg" width="45" height="45" viewBox="0 0 45 45">
  <g id="Group_4333" data-name="Group 4333" transform="translate(-2852 400) rotate(-90)">
    <g id="Rectangle_3007" data-name="Rectangle 3007" transform="translate(355 2852)" fill="none" stroke="#fff" stroke-width="1">
      <rect width="45" height="45" rx="2" stroke="none"/>
      <rect x="0.5" y="0.5" width="44" height="44" rx="1.5" fill="none"/>
    </g>
    <path id="Union_13" data-name="Union 13" d="M9.253,11.717l-.415-.412a.4.4,0,0,1,0-.567L12.97,6.558H.4a.4.4,0,0,1-.4-.4V5.563a.4.4,0,0,1,.4-.4H12.9L8.838,1.1a.4.4,0,0,1,0-.567L9.253.116a.4.4,0,0,1,.567,0l5.52,5.519a.406.406,0,0,1,0,.568L9.82,11.717a.4.4,0,0,1-.567,0Z" transform="translate(370 2868)" fill="#fff"/>
  </g>
</svg>
