<svg xmlns="http://www.w3.org/2000/svg" width="17.338" height="13.275" viewBox="0 0 17.338 13.275">
  <path id="Union_8" data-name="Union 8" d="M18802.379-10129.855l-.465-.463a.45.45,0,0,1,0-.637l4.635-4.689h-14.1a.449.449,0,0,1-.449-.449v-.666a.447.447,0,0,1,.449-.449h14.023l-4.559-4.559a.45.45,0,0,1,0-.637l.465-.467a.458.458,0,0,1,.637,0l6.191,6.191a.454.454,0,0,1,0,.637l-6.191,6.188a.45.45,0,0,1-.316.131A.456.456,0,0,1,18802.379-10129.855Z" transform="translate(18809.338 -10129.725) rotate(180)" fill="#eb6428"/>
</svg>
