<svg xmlns="http://www.w3.org/2000/svg" width="38" height="38" viewBox="0 0 38 38">
  <g id="Group_4301" data-name="Group 4301" transform="translate(-123 -410)">
    <g id="Ellipse_437" data-name="Ellipse 437" transform="translate(123 410)" fill="none" stroke="#eb6428" stroke-width="1">
      <circle cx="19" cy="19" r="19" stroke="none"/>
      <circle cx="19" cy="19" r="18.5" fill="none"/>
    </g>
    <path id="LinkedIn" d="M16.816,19.41v6.217h-3.6v-5.8c0-1.457-.521-2.452-1.826-2.452a1.972,1.972,0,0,0-1.849,1.318,2.466,2.466,0,0,0-.12.879v6.055H5.812s.049-9.824,0-10.842H9.417v1.537l-.024.035h.024v-.035a3.58,3.58,0,0,1,3.249-1.792C15.038,14.53,16.816,16.079,16.816,19.41ZM2.04,9.558a1.879,1.879,0,1,0-.048,3.747h.024A1.879,1.879,0,1,0,2.04,9.558ZM.214,25.627h3.6V14.785H.214Z" transform="translate(134.123 410.561)" fill="#3c3938"/>
  </g>
</svg>
