<svg xmlns="http://www.w3.org/2000/svg" xmlns:xlink="http://www.w3.org/1999/xlink" id="Component_71_1" data-name="Component 71 – 1" width="149.98" height="35.47" viewBox="0 0 149.98 35.47">
  <g id="Group_4268" data-name="Group 4268" transform="translate(0 0)">
    <g id="Group_4267" data-name="Group 4267" transform="translate(0 0)" clip-path="url(#clip-path)">
      <path id="Path_38699" data-name="Path 38699" d="M93.946,27.118c0-2.48-1.483-4.076-4.96-4.076H85.878v8.011h3.109c3.477,0,4.96-1.6,4.96-3.935M85.878,14.061v7.5h3.051c2.908,0,4.077-1.682,4.077-3.706,0-2.109-1.169-3.791-4.077-3.791ZM97.824,26.947c0,3.421-3.222,5.589-8.325,5.589H80.176l2.053-1.711V14.288l-2.053-1.71h9.209c4.533,0,7.355,1.91,7.355,5.047,0,2.166-1.34,3.763-3.563,4.561,2.88.6,4.647,2.139,4.647,4.761" transform="translate(-31.197 -4.894)" fill="#3C3938"/>
      <path id="Path_38700" data-name="Path 38700" d="M137.882,27.193a8.246,8.246,0,0,1-7.982,5.446,9.86,9.86,0,0,1-9.95-10.093c0-6.585,5.3-10.435,11.09-10.435a15.114,15.114,0,0,1,4.647.769l1.6-.712V19.1l-3.678-5.189a9.4,9.4,0,0,0-2.422-.314c-4.277,0-7.413,2.822-7.413,8.068,0,4.989,2.852,8.24,7.185,8.24a9.794,9.794,0,0,0,6.785-2.852Z" transform="translate(-46.673 -4.713)" fill="#3C3938"/>
      <path id="Path_38701" data-name="Path 38701" d="M185.716,32.535h-7.755l2.053-1.711V17.453L172.6,28.8l-7.556-10.976V30.681l3.136,1.853h-7.071l2.053-1.711V14.288l-2.053-1.711h4.5l7.983,11.6,7.5-11.6h4.59l-2.024,1.682V30.824Z" transform="translate(-62.689 -4.894)" fill="#3C3938"/>
      <path id="Path_38702" data-name="Path 38702" d="M213.852,12.577l2.051,1.711V30.825l-2.051,1.709h7.754l-2.053-1.709V14.288l2.053-1.711Zm12.259,0,2.766,1.967-7.951,7.865h0l7.95,7.865-2.766,1.967h7.1l-9.832-9.832,9.832-9.832Z" transform="translate(-83.21 -4.894)" fill="#3C3938"/>
      <path id="Path_38703" data-name="Path 38703" d="M20.886.034V31.883A3.085,3.085,0,0,1,17.8,34.969V3.12A3.085,3.085,0,0,1,20.886.034" transform="translate(-6.927 -0.013)" fill="#ee7030"/>
      <path id="Path_38704" data-name="Path 38704" d="M20.886.034V31.883A3.085,3.085,0,0,1,17.8,34.969V3.12A3.085,3.085,0,0,1,20.886.034" transform="translate(-6.927 -0.013)" fill="#ee7030"/>
      <path id="Path_38705" data-name="Path 38705" d="M32.01,9.563v4.411a3.938,3.938,0,0,1-1.16,2.788c-.075.075-.152.147-.233.215a3.926,3.926,0,0,1-2.555.945H26.454V14.644h1.608a.673.673,0,0,0,.671-.671V9.563Z" transform="translate(-10.293 -3.721)" fill="#ee7030"/>
      <path id="Path_38706" data-name="Path 38706" d="M32.01,37.956v4.411H28.733V37.956a.673.673,0,0,0-.671-.671H26.454V34.008h1.608a3.926,3.926,0,0,1,2.555.945c.081.068.158.141.233.215a3.936,3.936,0,0,1,1.16,2.788" transform="translate(-10.293 -13.233)" fill="#ee7030"/>
      <path id="Path_38707" data-name="Path 38707" d="M3.2,0H9.78A4.9,4.9,0,0,0,8.673,3.106v.171H3.2V4.789A3.1,3.1,0,0,0,6.311,7.9H8.673v3.277H6.624a6.754,6.754,0,0,1-1.773-.239A6.627,6.627,0,0,1,0,4.549V.009Z" transform="translate(0 0)" fill="#ee7030"/>
      <path id="Path_38708" data-name="Path 38708" d="M1.622,26H8.673v3.2H1.622A1.614,1.614,0,0,1,0,27.624v-.036A1.614,1.614,0,0,1,1.622,26" transform="translate(0 -10.118)" fill="#ee7030"/>
      <path id="Path_38709" data-name="Path 38709" d="M3.2,45.386v1.489H8.673v3.277H3.2L0,50.14V45.334a6.331,6.331,0,0,1,5.907-6.317c.14-.01.282-.015.425-.015H8.673V42.28H6.311A3.108,3.108,0,0,0,3.2,45.386" transform="translate(0 -15.176)" fill="#ee7030"/>
      <path id="Path_38710" data-name="Path 38710" d="M39.223,16.4a9.576,9.576,0,0,1-1.362,1.085q.121.08.239.163c.12.084.237.169.352.258l.114.09c.075.06.151.122.224.184l.105.09c.038.033.076.067.114.1s.066.059.1.089.078.071.115.108l.1.1.1.1c.033.035.067.07.1.1s.067.07.1.106a.067.067,0,0,1,.011.012c.093.1.184.2.274.309l0,.005.093.111c.031.037.062.075.092.114s.06.076.09.114.059.077.088.116.057.078.086.116.056.078.084.117l0,0,.081.118.08.121q.081.122.158.247l.075.124c.05.083.1.168.146.254l.07.128c.023.043.046.086.068.131.066.128.13.257.189.389l0,.007q.061.132.119.269l.056.135c.018.046.036.092.054.137s.035.092.052.138l.05.139c.016.046.032.094.047.141s.031.094.046.142.03.094.043.141.026.087.038.131a.115.115,0,0,1,.006.021c.013.045.025.09.037.136l.037.145c.01.041.019.082.029.123s.015.062.02.092.015.067.021.1c.02.093.038.187.055.28s.032.188.046.283v.008c.031.206.054.413.07.623l0,.027c0,.059.009.12.012.181,0,.008,0,.016,0,.024,0,.044.005.086.007.13s0,.081,0,.122v.023c0,.038,0,.076,0,.115s0,.087,0,.131h0c0,.013,0,.028,0,.042,0,.034,0,.069,0,.1,0,.14-.007.279-.015.417-.012.195-.029.389-.053.58q-.019.162-.045.323c0,.007,0,.013,0,.019-.035.227-.079.452-.132.673,0,0,0,.005-.006.009a.164.164,0,0,1-.073.194.327.327,0,0,1-.018.173c-.018.065-.037.129-.056.193q-.016.056-.035.112c-.011.037-.023.073-.035.11s-.024.079-.038.118-.024.068-.037.1a9.639,9.639,0,0,1-9.072,6.355H24.643a4.894,4.894,0,0,0,1.108-3.107V31.7h6.776A6.353,6.353,0,0,0,38.9,25.537a6.321,6.321,0,0,0-6.3-6.446H25.751v-3.2H32.6a6.322,6.322,0,0,0,6.3-6.446,6.353,6.353,0,0,0-6.377-6.163H25.751V0h6.909a9.559,9.559,0,0,1,8.977,6.355l.038.109c.025.073.049.147.071.22q.018.056.035.112t.033.112c.009.03.017.059.025.089l.011.04c.01.036.02.073.029.109.077.293.139.591.187.894,0,.005,0,.013,0,.018.017.108.031.216.045.324.023.192.04.384.051.579h0v0c.011.185.017.372.017.561h0c0,.043,0,.086,0,.13s0,.077,0,.115v.023c0,.04,0,.081,0,.122s0,.087-.007.13c-.015.288-.044.574-.086.855v.007c-.015.1-.029.189-.046.283s-.035.187-.055.279c-.007.035-.015.07-.022.105-.016.071-.032.141-.049.211-.011.046-.023.092-.036.138s-.031.116-.047.175c-.011.04-.022.079-.035.119s-.028.094-.043.142-.029.095-.046.141-.031.094-.047.141l-.05.139c-.016.045-.033.089-.051.134l0,0c-.018.046-.035.092-.053.136s-.037.09-.056.136q-.057.137-.119.27l0,.006c-.06.131-.123.261-.189.389-.022.044-.045.087-.068.13l-.07.128c-.023.043-.048.086-.072.128s-.048.084-.074.125-.056.094-.084.141l-.068.108c-.026.041-.053.082-.08.122s-.053.081-.08.121-.054.08-.081.118l0,0c-.028.04-.056.079-.084.118l-.08.109-.008.01a9.407,9.407,0,0,1-.954,1.09c-.034.034-.069.067-.1.1" transform="translate(-9.589 -0.001)" fill="#ee7030"/>
    </g>
  </g>
</svg>