<svg xmlns="http://www.w3.org/2000/svg" width="54.4" height="38" viewBox="0 0 54.4 38">
  <path id="Path_38721" data-name="Path 38721" d="M51.6-116.2a9.143,9.143,0,0,0-2.1-5.7,7.262,7.262,0,0,0-6.1-2.7,11.671,11.671,0,0,0-3.3.5,10.718,10.718,0,0,0-3.5,1.9q-1.2-1.8-1.2-5.8,0-6.4,3.6-9.5T49.6-142v-2a29.217,29.217,0,0,0-9.3,1.5,22.385,22.385,0,0,0-7.8,4.4,22.463,22.463,0,0,0-5.3,6.9,19.846,19.846,0,0,0-2,9,17.241,17.241,0,0,0,4,11.4A13.327,13.327,0,0,0,40-106a13.218,13.218,0,0,0,8.1-2.6A8.878,8.878,0,0,0,51.6-116.2Zm-28.4,0a9.143,9.143,0,0,0-2.1-5.7,7.262,7.262,0,0,0-6.1-2.7,11.671,11.671,0,0,0-3.3.5,10.718,10.718,0,0,0-3.5,1.9A12.1,12.1,0,0,1,7-128q0-6.4,3.6-9.5T21.2-142v-2a29.217,29.217,0,0,0-9.3,1.5,22.385,22.385,0,0,0-7.8,4.4A20.022,20.022,0,0,0-1-131.2a21.7,21.7,0,0,0-1.8,9A17.811,17.811,0,0,0,1-110.8Q4.8-106,11.6-106a13.218,13.218,0,0,0,8.1-2.6A8.878,8.878,0,0,0,23.2-116.2Z" transform="translate(2.8 144)" fill="#eb6428"/>
</svg>
