<svg id="Group_4315" data-name="Group 4315" xmlns="http://www.w3.org/2000/svg" xmlns:xlink="http://www.w3.org/1999/xlink" width="49.812" height="53.454" viewBox="0 0 49.812 53.454">
  <defs>
    <clipPath id="clip-path">
      <rect id="Rectangle_3022" data-name="Rectangle 3022" width="49.812" height="53.454" fill="none"/>
    </clipPath>
  </defs>
  <g id="Group_4314" data-name="Group 4314" clip-path="url(#clip-path)">
    <path id="Path_38729" data-name="Path 38729" d="M87,.156V48.831a4.714,4.714,0,0,1-4.714,4.715V4.871A4.714,4.714,0,0,1,87,.156" transform="translate(-65.664 -0.124)" fill="#ebebeb"/>
    <path id="Path_38730" data-name="Path 38730" d="M87,.156V48.831a4.714,4.714,0,0,1-4.714,4.715V4.871A4.714,4.714,0,0,1,87,.156" transform="translate(-65.664 -0.124)" fill="#ebebeb"/>
    <path id="Path_38731" data-name="Path 38731" d="M130.771,44.2v6.741A6.02,6.02,0,0,1,129,55.206c-.114.114-.232.224-.356.329a6,6,0,0,1-3.906,1.444h-2.457V51.97h2.457a1.027,1.027,0,0,0,1.025-1.025V44.2Z" transform="translate(-97.581 -35.276)" fill="#ebebeb"/>
    <path id="Path_38732" data-name="Path 38732" d="M130.771,163.227v6.741h-5.01v-6.741a1.027,1.027,0,0,0-1.025-1.026h-2.457v-5.008h2.457a6,6,0,0,1,3.906,1.444c.124.1.242.215.356.329a6.015,6.015,0,0,1,1.773,4.261" transform="translate(-97.581 -125.443)" fill="#ebebeb"/>
    <path id="Path_38733" data-name="Path 38733" d="M4.9,0h10.05a7.481,7.481,0,0,0-1.693,4.747v.261H4.9V7.319a4.743,4.743,0,0,0,4.748,4.748h3.609v5.008H10.124a9.856,9.856,0,0,1-1.095-.06,9.949,9.949,0,0,1-1.615-.307A10.128,10.128,0,0,1,0,6.953V.014Z" fill="#ebebeb"/>
    <path id="Path_38734" data-name="Path 38734" d="M2.48,120.2H13.257v4.9H2.48A2.466,2.466,0,0,1,0,122.673v-.054A2.466,2.466,0,0,1,2.48,120.2" transform="translate(-0.002 -95.919)" fill="#ebebeb"/>
    <path id="Path_38735" data-name="Path 38735" d="M4.9,190.038v2.275h8.357v5.009H4.9L0,197.3v-7.344a9.676,9.676,0,0,1,9.029-9.654c.214-.016.431-.023.648-.023h3.578v5.008H9.646A4.75,4.75,0,0,0,4.9,190.038" transform="translate(0 -143.868)" fill="#ebebeb"/>
    <path id="Path_38736" data-name="Path 38736" d="M136.191,25.071a14.631,14.631,0,0,1-2.082,1.658c.123.082.246.164.366.248.182.128.362.259.538.395.058.044.116.091.175.137.115.092.23.186.343.281l.16.138c.058.05.117.1.173.154s.1.089.15.136.118.109.176.166.107.1.159.154l.158.157.154.159c.052.053.1.107.153.162l.017.018c.142.154.281.31.418.471a.037.037,0,0,1,.006.009c.048.057.1.113.142.169s.094.114.14.173.092.117.137.175.09.118.135.177.088.119.132.177.085.12.128.18c0,0,0,0,0,0l.124.18c.041.062.083.123.123.185q.122.186.241.377l.114.19c.076.127.15.256.223.387.036.065.073.131.107.2s.07.132.1.2c.1.2.2.393.29.594l0,.01c.062.135.123.272.181.411l.085.207c.028.07.056.14.083.21s.053.141.079.211.052.142.076.212.049.144.073.215.047.144.07.216.045.144.066.216.04.133.058.2a.141.141,0,0,1,.008.033c.021.068.039.137.057.207s.039.147.057.221.03.126.045.189c.01.048.022.094.031.141s.022.1.033.151c.03.144.058.286.084.428s.049.287.07.432a.039.039,0,0,1,0,.012c.047.314.082.631.107.952l0,.041c.008.091.013.183.018.276,0,.013,0,.026,0,.038,0,.067.008.132.011.2s.005.124.006.186v.035c0,.058,0,.117,0,.176s0,.132,0,.2h0c0,.021,0,.043,0,.065,0,.052,0,.1,0,.157q0,.32-.023.637c-.018.3-.044.594-.08.886-.019.166-.043.33-.068.494a.224.224,0,0,0,0,.028c-.054.347-.122.691-.2,1.029,0,0,0,.008-.009.013a.249.249,0,0,1-.111.3.493.493,0,0,1-.027.265c-.027.1-.056.2-.085.295-.017.057-.035.114-.053.171s-.035.113-.054.168-.038.12-.058.18-.038.1-.056.157a14.731,14.731,0,0,1-13.864,9.712H113.908a7.48,7.48,0,0,0,1.693-4.748v-.261h10.355a9.709,9.709,0,0,0,9.747-9.418,9.662,9.662,0,0,0-9.633-9.852H115.6v-4.9H126.07a9.662,9.662,0,0,0,9.633-9.852,9.709,9.709,0,0,0-9.747-9.418H115.6V0h10.558a14.608,14.608,0,0,1,13.719,9.712c.019.056.039.11.058.167.039.111.075.224.11.336.018.057.036.114.053.171s.035.114.05.171.026.089.038.135c.006.021.012.04.017.061.016.056.031.111.044.167.118.448.212.9.286,1.365a.231.231,0,0,1,0,.028c.026.164.048.33.068.494.035.294.062.588.079.885h0s0,0,0,0q.025.425.026.858h0c0,.066,0,.132,0,.2s0,.118,0,.176v.035c0,.062-.005.124-.006.186s-.006.132-.011.2c-.023.44-.067.877-.131,1.307a.027.027,0,0,1,0,.01c-.022.146-.044.29-.07.433s-.053.286-.084.427c-.011.054-.022.107-.034.161-.025.109-.049.215-.075.322-.017.07-.035.141-.054.211-.023.089-.046.177-.073.267-.017.061-.034.122-.053.183s-.043.144-.066.216-.045.145-.07.216-.048.144-.073.215-.05.141-.076.212-.05.137-.078.2a.018.018,0,0,1,0,.008c-.027.07-.053.14-.082.208l-.085.207c-.058.14-.119.277-.181.413l0,.009c-.092.2-.188.4-.29.594-.034.067-.068.133-.1.2s-.071.131-.107.2-.073.131-.11.2-.074.128-.113.191-.085.144-.129.215l-.1.166c-.04.062-.08.124-.122.186s-.082.123-.123.185-.083.122-.124.18a.009.009,0,0,0,0,0c-.043.061-.084.12-.128.18s-.081.111-.123.167l-.012.016a14.5,14.5,0,0,1-1.457,1.666c-.052.052-.106.1-.159.154" transform="translate(-90.901 -0.001)" fill="#ebebeb"/>
  </g>
</svg>
